<svg xmlns="http://www.w3.org/2000/svg" xmlns:xlink="http://www.w3.org/1999/xlink" width="511.336" height="512" viewBox="0 0 511.336 512">
  <defs>
    <clipPath id="clip-aceptado">
      <rect width="511.336" height="512"/>
    </clipPath>
  </defs>
  <g id="aceptado" clip-path="url(#clip-aceptado)">
    <g id="Grupo_6" data-name="Grupo 6" transform="translate(36)">
      <rect id="Rectángulo_2" data-name="Rectángulo 2" width="329" height="465" rx="23" transform="translate(23 28)" fill="#b9b9be"/>
      <rect id="Rectángulo_1" data-name="Rectángulo 1" width="325" height="459" rx="23" transform="translate(20 28)" fill="#fff"/>
      <g id="Grupo_5" data-name="Grupo 5">
        <rect id="Rectángulo_3" data-name="Rectángulo 3" width="226" height="27" rx="13.5" transform="translate(54 329)" fill="#bfbfc3"/>
        <rect id="Rectángulo_4" data-name="Rectángulo 4" width="226" height="27" rx="13.5" transform="translate(54 381)" fill="#bfbfc3"/>
        <rect id="Rectángulo_5" data-name="Rectángulo 5" width="139" height="27" rx="13.5" transform="translate(54 433)" fill="#bfbfc3"/>
      </g>
      <g id="hamburger" transform="translate(63.475 74.689)">
        <path id="Trazado_36" data-name="Trazado 36" d="M219.247,164.673H194.5a16.319,16.319,0,0,0,0-32.639h.309a16.057,16.057,0,0,0,16.011-16.009,15.871,15.871,0,0,0-2.319-8.271,35.872,35.872,0,0,1,3.876-.808c3.384-.517,5.014-3.479,3.191-5.712L200.349,82.878h7.345c11.108,0,18.8-9.556,14.742-18.395C205.089,26.726,162.079,0,111.769,0S18.449,26.726,1.1,64.483c-4.062,8.839,3.634,18.395,14.742,18.395h5.776L7.858,101.321c-1.682,2.261.063,5.1,3.413,5.589a36.1,36.1,0,0,1,3.81.766,15.882,15.882,0,0,0-2.367,8.35,16.057,16.057,0,0,0,16.011,16.009h.309a16.319,16.319,0,0,0,0,32.639H4.29A4.289,4.289,0,0,0,0,168.962v.7A52.236,52.236,0,0,0,52.237,221.9H171.3a52.236,52.236,0,0,0,52.236-52.234v-.7a4.289,4.289,0,0,0-4.289-4.289Zm0,0" transform="translate(0 0)" fill="#ffe7c0"/>
        <path id="Trazado_37" data-name="Trazado 37" d="M227.229,245.089A16.051,16.051,0,0,1,211.218,261.1H45.132a16.054,16.054,0,0,1-16.011-16.009,15.84,15.84,0,0,1,1.5-6.735,16.076,16.076,0,0,1,14.515-9.276H211.218a16.053,16.053,0,0,1,14.515,9.276,15.841,15.841,0,0,1,1.5,6.735Zm0,0" transform="translate(-16.407 -129.064)" fill="#d63030"/>
        <path id="Trazado_38" data-name="Trazado 38" d="M227.663,238.354a16.087,16.087,0,0,1-14.515,9.271H47.062a16.057,16.057,0,0,1-14.515-9.271,16.076,16.076,0,0,1,14.515-9.276H213.148a16.053,16.053,0,0,1,14.515,9.276Zm0,0" transform="translate(-18.337 -129.064)" fill="#f44545"/>
        <path id="Trazado_39" data-name="Trazado 39" d="M227.229,318.739a16.367,16.367,0,0,1-16.319,16.319H45.441a16.32,16.32,0,0,1,0-32.64H210.909a16.326,16.326,0,0,1,16.319,16.321Zm0,0" transform="translate(-16.407 -170.384)" fill="#7c3f2c"/>
        <path id="Trazado_40" data-name="Trazado 40" d="M227.488,313.427a16.388,16.388,0,0,1-15.429,11.009H46.59A16.4,16.4,0,0,1,31.16,313.427,16.388,16.388,0,0,1,46.59,302.418H212.058a16.4,16.4,0,0,1,15.429,11.009Zm0,0" transform="translate(-17.556 -170.384)" fill="#954c35"/>
        <path id="Trazado_41" data-name="Trazado 41" d="M221.684,210.024c-11.009,1.678-13.437,6.893-28.525,6.893-17.982,0-17.982-7.407-35.963-7.407s-17.979,7.407-35.958,7.407-17.98-7.407-35.964-7.407-17.979,7.407-35.952,7.407c-15.189,0-17.547-5.283-28.752-6.926-3.346-.489-5.092-3.327-3.411-5.592l6.8-9.112,9.2-12.327h174l12.5,15.069,5.212,6.283c1.828,2.232.194,5.2-3.187,5.712Zm0,0" transform="translate(-9.302 -103.081)" fill="#1ed688"/>
        <path id="Trazado_42" data-name="Trazado 42" d="M229.269,198.031c-5.752,2.151-10.026,4.9-20.994,4.9-17.984,0-17.984-7.407-35.963-7.407s-17.979,7.407-35.963,7.407-17.979-7.407-35.959-7.407-17.979,7.407-35.958,7.407c-15.189,0-17.544-5.283-28.747-6.924a5.876,5.876,0,0,1-2.12-.723l9.2-12.327h174Zm0,0" transform="translate(-18.911 -103.082)" fill="#35e298"/>
        <path id="Trazado_43" data-name="Trazado 43" d="M223.536,381.467v.7A52.245,52.245,0,0,1,171.3,434.4H52.238A52.234,52.234,0,0,1,0,382.167v-.7a4.286,4.286,0,0,1,4.287-4.287H219.249a4.286,4.286,0,0,1,4.287,4.287Zm0,0" transform="translate(0 -212.506)" fill="#f29500"/>
        <path id="Trazado_44" data-name="Trazado 44" d="M244.127,381.467v.7a51.97,51.97,0,0,1-10.095,30.862,51.983,51.983,0,0,1-26.946,7.48H88.024A52.243,52.243,0,0,1,36.547,377.18H239.839a4.286,4.286,0,0,1,4.287,4.288Zm0,0" transform="translate(-20.591 -212.505)" fill="#ffa90b"/>
        <path id="Trazado_45" data-name="Trazado 45" d="M94.566,302.548l109.547,25.739c3.8.894,7.686-.52,10.78-3.924l21.5-21.944Zm0,0" transform="translate(-53.279 -170.384)" fill="#ffcd71"/>
        <path id="Trazado_46" data-name="Trazado 46" d="M222.221,74.736c-2.4,4.68-7.843,8.14-14.527,8.14H15.842c-11.108,0-18.8-9.554-14.742-18.393,13.309-28.97,41.734-51.446,76.965-60.34A137.713,137.713,0,0,1,111.768,0c50.309,0,93.32,26.728,110.668,64.483a11.519,11.519,0,0,1-.215,10.253Zm0,0" transform="translate(0 0)" fill="#f29500"/>
        <path id="Trazado_47" data-name="Trazado 47" d="M251.9,74.736H68.511c-11.1,0-18.8-9.557-14.742-18.4,10.268-22.35,29.53-40.833,53.97-52.2A137.713,137.713,0,0,1,141.442,0c50.309,0,93.32,26.728,110.668,64.483a11.519,11.519,0,0,1-.215,10.253Zm0,0" transform="translate(-29.674 0)" fill="#ffa90b"/>
        <g id="Grupo_4" data-name="Grupo 4" transform="translate(23.758 22.913)">
          <path id="Trazado_48" data-name="Trazado 48" d="M135.3,53.138a3.41,3.41,0,0,0-4.765.744l-5.092,6.972a3.411,3.411,0,0,0,5.509,4.023l5.092-6.974a3.411,3.411,0,0,0-.744-4.765Zm0,0" transform="translate(-94.061 -52.482)" fill="#ffd993"/>
          <path id="Trazado_49" data-name="Trazado 49" d="M184.546,119.746a3.41,3.41,0,0,0-4.765.742l-5.092,6.974a3.41,3.41,0,1,0,5.509,4.021l5.092-6.972a3.41,3.41,0,0,0-.744-4.765Zm0,0" transform="translate(-121.809 -90.009)" fill="#ffd993"/>
          <path id="Trazado_50" data-name="Trazado 50" d="M274.035,53.138a3.41,3.41,0,0,0-4.765.744l-5.092,6.972a3.411,3.411,0,0,0,5.509,4.023l5.092-6.974A3.411,3.411,0,0,0,274.035,53.138Zm0,0" transform="translate(-172.227 -52.482)" fill="#ffd993"/>
          <path id="Trazado_51" data-name="Trazado 51" d="M324.061,135.716a3.41,3.41,0,0,0-4.765.744l-5.092,6.974a3.409,3.409,0,1,0,5.507,4.021l5.092-6.972A3.411,3.411,0,0,0,324.061,135.716Zm0,0" transform="translate(-200.412 -99.007)" fill="#ffd993"/>
          <path id="Trazado_52" data-name="Trazado 52" d="M388.6,53.138a3.41,3.41,0,0,0-4.765.744l-5.092,6.972a3.411,3.411,0,0,0,5.509,4.023l5.092-6.974a3.411,3.411,0,0,0-.744-4.765Zm0,0" transform="translate(-236.775 -52.482)" fill="#ffd993"/>
          <path id="Trazado_53" data-name="Trazado 53" d="M440.811,127.731a3.41,3.41,0,0,0-4.765.744l-5.092,6.972a3.411,3.411,0,0,0,5.509,4.023l5.091-6.974A3.408,3.408,0,0,0,440.811,127.731Zm0,0" transform="translate(-266.19 -94.508)" fill="#ffd993"/>
          <path id="Trazado_54" data-name="Trazado 54" d="M64.931,111.055a3.414,3.414,0,0,0-4.767.742l-5.091,6.974a3.41,3.41,0,1,0,5.507,4.023l5.092-6.974a3.41,3.41,0,0,0-.742-4.765Zm0,0" transform="translate(-54.416 -85.113)" fill="#ffd993"/>
        </g>
        <path id="Trazado_55" data-name="Trazado 55" d="M236.391,302.418l-17.406,17.766-4.093,4.18c-3.092,3.4-6.975,4.814-10.777,3.924L94.566,302.546l48.9-.046Zm0,0" transform="translate(-53.279 -170.384)" fill="#ffcd71"/>
        <path id="Trazado_56" data-name="Trazado 56" d="M299.495,302.418l-17.406,17.766A9.569,9.569,0,0,1,281.03,320l-74.46-17.5Zm0,0" transform="translate(-116.383 -170.384)" fill="#ffd993"/>
      </g>
      <g id="pendiente" transform="translate(217.975 296.975)">
        <g id="Grupo_1" data-name="Grupo 1" transform="translate(19.83 19.83)">
          <circle id="Elipse_1" data-name="Elipse 1" cx="91.204" cy="91.204" r="91.204" fill="#0fc959"/>
        </g>
        <path id="Trazado_2" data-name="Trazado 2" d="M167.981,234.568a7.649,7.649,0,0,1-5.46-2.29l-28.257-28.717a7.657,7.657,0,1,1,10.92-10.736l22.575,22.943,46.7-51.437a7.657,7.657,0,1,1,11.333,10.3l-52.149,57.433a7.659,7.659,0,0,1-5.513,2.512A1.077,1.077,0,0,0,167.981,234.568Z" transform="translate(-68.893 -87.16)" fill="#fff"/>
      </g>
    </g>
  </g>
</svg>
