<svg id="Capa_1" enable-background="new 0 0 512 512" height="512" viewBox="0 0 512 512" width="512" xmlns="http://www.w3.org/2000/svg"><g><g><path d="m285.697 121.236c1.225.493 2.489.727 3.732.727 3.96 0 7.709-2.369 9.279-6.268 2.063-5.123-.417-10.948-5.541-13.012-25.357-10.211-48.979-10.211-74.337 0-5.123 2.063-7.604 7.889-5.541 13.012 2.063 5.124 7.887 7.604 13.012 5.541 20.54-8.271 38.858-8.271 59.396 0z"/><path d="m247.125 73.647c6.222-2.496 11.529-2.496 17.751 0 1.221.49 2.481.723 3.721.723 3.965 0 7.717-2.374 9.284-6.278 2.057-5.126-.431-10.948-5.557-13.005-10.984-4.408-21.663-4.408-32.647 0-5.125 2.057-7.613 7.879-5.557 13.005 2.056 5.124 7.877 7.614 13.005 5.555z"/><path d="m444.02 367.847c-.529-32.629-12.788-56.76-37.478-73.769-20.747-14.294-47.046-21.382-72.48-28.236-7.836-2.112-15.343-4.136-22.554-6.324v-21.618c30.827-21.322 54.093-56.46 56.585-88.296 1.931.527 3.292.532 4.165.532 4.581 0 8.576-3.112 9.696-7.554 6.64-26.322 4.801-65.937-3.856-83.112 0-.001 0-.002 0-.002-8.734-17.319-23.781-22.231-36.5-19.692-21.308-25.025-52.795-39.776-85.612-39.776-32.801 0-64.276 14.751-85.583 39.775-12.719-2.541-27.766 2.375-36.5 19.693 0 0 0 .001-.001.002-8.648 17.156-10.501 56.765-3.887 83.102 1.117 4.446 5.114 7.564 9.699 7.564.877 0 2.248-.004 4.193-.538 2.49 31.841 25.761 66.986 56.585 88.305v21.613c-7.208 2.187-14.713 4.209-22.545 6.319-25.438 6.855-51.743 13.943-72.49 28.237-24.689 17.009-36.947 41.14-37.476 73.773-.001.054-.001.108-.001.162v133.993c0 5.522 4.477 10 10 10h133.108c5.523 0 10-4.478 10-10s-4.477-10-10-10h-64.831v-195.86c5.049-1.814 10.272-3.484 15.618-5.07l86.068 116.554c1.885 2.553 4.87 4.06 8.043 4.06h.001c3.173 0 6.158-1.506 8.043-4.059l43.603-59.029c.013-.019.028-.036.041-.055l42.45-57.468c5.347 1.586 10.571 3.257 15.621 5.071v195.856h-64.831c-5.523 0-10 4.478-10 10s4.477 10 10 10h133.108c5.523 0 10-4.478 10-10v-133.991c-.001-.054-.001-.109-.002-.162zm-317.764 124.153h-38.277v-123.906c.56-33.186 16.015-51.328 38.277-63.251zm233.983-423.526c4.711 9.35 7.087 34.056 4.756 55.216-3.42-3.354-7.698-8.094-12.597-14.473-8.929-11.627-16.061-23.757-17.75-30.189-2.583-9.812 2.805-16.768 8.903-19.079 1.5-.568 2.971-.848 4.397-.848 4.864 0 9.202 3.248 12.291 9.373zm-208.478 0c3.996-7.923 10.076-11.031 16.688-8.525 6.099 2.312 11.486 9.268 8.901 19.086-1.688 6.43-8.823 18.562-17.755 30.188-4.902 6.381-9.182 11.119-12.604 14.472-2.32-21.173.063-45.881 4.77-55.221zm11.899 75.546v-8.717c3.02-3.163 6.353-6.986 10.038-11.643 9.127-11.535 19.961-27.982 22.995-39.541 3.724-14.145-.622-26.299-8.389-34.381 17.43-18.77 42.07-29.738 67.682-29.738 25.627 0 50.278 10.968 67.711 29.738-7.768 8.081-12.113 20.234-8.391 34.374 3.035 11.561 13.867 28.009 22.992 39.547 3.687 4.662 7.021 8.487 10.042 11.652v8.708c0 33.588-32.793 75.209-70.198 89.076-8.281 3.09-15.321 4.528-22.157 4.528-6.816 0-13.848-1.438-22.148-4.535-37.384-13.859-70.177-55.481-70.177-89.068zm63.206 107.814c10.588 3.95 19.841 5.79 29.12 5.79 9.297 0 18.56-1.84 29.128-5.783 2.15-.797 4.279-1.691 6.394-2.632v13.027l-35.508 30.348-35.508-30.349v-13.025c2.109.938 4.23 1.829 6.374 2.624zm-44.373 33.49.657-.177c8.319-2.242 16.863-4.55 25.073-7.089l32.386 27.681-26.387 22.553zm73.494 99.528-29.855-40.43 29.868-25.529 29.858 25.52zm41.784-56.566-26.38-22.547 32.385-27.68c8.212 2.541 16.76 4.851 25.082 7.093l.645.174zm126.25 163.714h-38.277v-187.153c22.262 11.923 37.717 30.063 38.277 63.247z"/><path d="m255.986 492c-5.523 0-10 4.478-10 10s4.477 10 10 10h.057c5.523 0 9.972-4.478 9.972-10s-4.506-10-10.029-10z"/></g></g></svg>