<svg xmlns="http://www.w3.org/2000/svg" xmlns:xlink="http://www.w3.org/1999/xlink" width="511.336" height="512" viewBox="0 0 511.336 512">
  <defs>
    <clipPath id="clip-entregando">
      <rect width="511.336" height="512"/>
    </clipPath>
  </defs>
  <g id="entregando" clip-path="url(#clip-entregando)">
    <g id="entregando-2" data-name="entregando" transform="translate(48 74)">
      <path id="Trazado_57" data-name="Trazado 57" d="M310.165,56.752a15.871,15.871,0,0,0,13.8-14.694L325.5,16.72A15.729,15.729,0,0,0,309.785,0c-28.379.177-48.154,19.519-33.526,63.925,16.714,50.69,18.091,184.044-20.772,184.186l-19.341.076a20.376,20.376,0,0,1-19.069-13l-29.221-75.314h-.671v-8.987a11.609,11.609,0,0,0-11.608-11.608H84.39a11.6,11.6,0,0,0-10.225,6.094c-2.191,4.068-1.1,7.16-1.387,14.5C50.1,184.05,36.375,216.124,27.366,248.07A17.109,17.109,0,0,0,43.82,269.849H295.167a62.412,62.412,0,0,1,65.409-61.013C313.888,94.927,294.166,58.955,310.165,56.751Zm0,0" transform="translate(-5.064)" fill="#fb5858"/>
      <path id="Trazado_58" data-name="Trazado 58" d="M64.719,197.313l-37.458-45.8A6.306,6.306,0,1,0,17.5,159.5L54.96,205.3a6.3,6.3,0,0,0,9.759-7.983Zm0,0" transform="translate(-3.048 -28.292)" fill="#4b5055"/>
      <path id="Trazado_59" data-name="Trazado 59" d="M482.791,320.024a62.415,62.415,0,1,1-62.415-62.415A62.416,62.416,0,0,1,482.791,320.024Zm0,0" transform="translate(-67.878 -48.849)" fill="#4b5055"/>
      <path id="Trazado_60" data-name="Trazado 60" d="M458.67,327.4a30.9,30.9,0,1,1-18.442-28.306A30.931,30.931,0,0,1,458.67,327.4Zm0,0" transform="translate(-75.247 -56.217)" fill="#5a5f64"/>
      <path id="Trazado_61" data-name="Trazado 61" d="M416.907,29.185A20.44,20.44,0,0,1,412.266,42.2a18.982,18.982,0,0,1-1.393,1.548,20.5,20.5,0,0,1-14.561,6.037H383.887V8.59h12.425a20.606,20.606,0,0,1,20.595,20.6Zm0,0" transform="translate(-72.794 -1.629)" fill="#ffb52d"/>
      <path id="Trazado_62" data-name="Trazado 62" d="M420.77,29.281a20.44,20.44,0,0,1-4.641,13.014,12.421,12.421,0,0,1-11.868-12.406V9.1A20.593,20.593,0,0,1,420.77,29.281Zm0,0" transform="translate(-76.657 -1.725)" fill="#ffc14f"/>
      <path id="Trazado_63" data-name="Trazado 63" d="M194.912,320.024A62.415,62.415,0,1,1,132.5,257.609,62.416,62.416,0,0,1,194.912,320.024Zm0,0" transform="translate(-13.289 -48.849)" fill="#4b5055"/>
      <path id="Trazado_64" data-name="Trazado 64" d="M170.788,327.4a30.9,30.9,0,1,1-18.442-28.306A30.931,30.931,0,0,1,170.788,327.4Zm0,0" transform="translate(-20.656 -56.217)" fill="#5a5f64"/>
      <path id="Trazado_65" data-name="Trazado 65" d="M464.508,328.01a30.931,30.931,0,0,1-18.442,28.3,30.93,30.93,0,0,1,0-56.6A30.948,30.948,0,0,1,464.508,328.01Zm0,0" transform="translate(-81.085 -56.831)" fill="#7d8287"/>
      <path id="Trazado_66" data-name="Trazado 66" d="M176.629,328.01a30.931,30.931,0,0,1-18.442,28.3,30.93,30.93,0,0,1,0-56.6A30.948,30.948,0,0,1,176.629,328.01Zm0,0" transform="translate(-26.497 -56.831)" fill="#7d8287"/>
      <path id="Trazado_67" data-name="Trazado 67" d="M197.964,183.479v8.987H83.558v-8.987a11.591,11.591,0,0,1,11.611-11.608h91.186a11.6,11.6,0,0,1,11.608,11.608Zm0,0" transform="translate(-15.844 -32.591)" fill="#4b5055"/>
      <path id="Trazado_68" data-name="Trazado 68" d="M196.9,177.974a8.975,8.975,0,0,1-7.6,4.194H92.879a9.008,9.008,0,0,1-6.366-2.631,8.838,8.838,0,0,1-1.244-1.573,11.6,11.6,0,0,1,10.225-6.094H186.68a11.609,11.609,0,0,1,10.222,6.1Zm0,0" transform="translate(-16.169 -32.591)" fill="#5a5f64"/>
      <path id="Trazado_69" data-name="Trazado 69" d="M360.576,208.837a62.412,62.412,0,0,0-65.409,61.013H43.82A17.109,17.109,0,0,1,27.365,248.07q.807-2.863,1.7-5.793c1.336-4.457,2.8-9,4.4-13.567a224.012,224.012,0,0,1,21.187-45.134,154.45,154.45,0,0,1,18.123-23.7H187.855l29.221,75.314a20.376,20.376,0,0,0,19.069,13l19.341-.076c38.863-.142,37.486-133.5,20.772-184.186C261.631,19.519,281.406.177,309.785,0a15.481,15.481,0,0,1,8.382,2.4A15.8,15.8,0,0,1,325.5,16.72l-1.529,25.337a15.871,15.871,0,0,1-13.8,14.694c-16,2.2,3.723,38.176,50.411,152.085Zm0,0" transform="translate(-5.064 0)" fill="#fb5858"/>
      <path id="Trazado_70" data-name="Trazado 70" d="M421.163,209.4a62.416,62.416,0,0,0-65.409,61.013h-9.535c1.858-12.029,5.347-23.612,11.627-34.447,20.025-34.536,16.568-130.293,2.991-171.477C349.1,28.847,359.52,9.354,378.754,2.956a15.8,15.8,0,0,1,7.328,14.324l-1.529,25.337a15.871,15.871,0,0,1-13.8,14.694c-16,2.2,3.723,38.176,50.411,152.085Zm0,0" transform="translate(-65.651 -0.561)" fill="#f44545"/>
      <path id="Trazado_71" data-name="Trazado 71" d="M351.3,29.855H292.454a6.306,6.306,0,1,0,0,12.611H351.3a6.306,6.306,0,0,0,0-12.611Zm0,0" transform="translate(-54.26 -5.661)" fill="#4b5055"/>
      <path id="Trazado_72" data-name="Trazado 72" d="M209.89,285.228v.462A27.416,27.416,0,0,1,198.4,308.007H43.82a17.109,17.109,0,0,1-16.454-21.779q.807-2.863,1.7-5.793c1.336-4.457,2.8-9,4.4-13.568a224.012,224.012,0,0,1,21.187-45.134c63.032-45.33,155.235-11.678,155.235,63.494Zm0,0" transform="translate(-5.064 -38.158)" fill="#f44545"/>
      <path id="Trazado_73" data-name="Trazado 73" d="M88.278,56.491v88.4A4.284,4.284,0,0,1,84,149.181H4.28A4.282,4.282,0,0,1,0,144.895v-88.4a4.279,4.279,0,0,1,4.28-4.28H84A4.281,4.281,0,0,1,88.278,56.491Zm0,0" transform="translate(0 -9.9)" fill="#f44545"/>
      <path id="Trazado_74" data-name="Trazado 74" d="M93.479,56.491v74.422H31.707a4.278,4.278,0,0,1-4.277-4.28V52.211H89.2a4.281,4.281,0,0,1,4.28,4.28Zm0,0" transform="translate(-5.201 -9.9)" fill="#fb5858"/>
      <path id="Trazado_75" data-name="Trazado 75" d="M435.117,258.8l-20.636,40.747a30.3,30.3,0,0,1-27.018,16.594H344.488a71.993,71.993,0,0,1,3.9-23.2,72.871,72.871,0,0,1,63.956-48.616q2.711-.2,5.473-.2a74.012,74.012,0,0,1,10.073.69,9.679,9.679,0,0,1,7.227,13.988Zm0,0" transform="translate(-65.323 -46.291)" fill="#af2727"/>
      <path id="Trazado_76" data-name="Trazado 76" d="M413.258,244.371l-16.223,32.013a30.281,30.281,0,0,1-27.018,16.6H349.3a72.871,72.871,0,0,1,63.956-48.616Zm0,0" transform="translate(-66.236 -46.338)" fill="#d63030"/>
      <path id="Trazado_77" data-name="Trazado 77" d="M193.642,288.479v.377a22.66,22.66,0,0,1-22.713,22.605H43.82a17.108,17.108,0,0,1-16.451-21.779c.877-3.105,1.368-4.688,1.738-5.926,6.211-20.665,20.411-31.446,24.929-37.16,51.1-51.8,139.606-24.881,139.606,41.883Zm0,0" transform="translate(-5.065 -41.612)" fill="#d63030"/>
      <g id="Grupo_7" data-name="Grupo 7" transform="translate(66.369 208.105)">
        <path id="Trazado_78" data-name="Trazado 78" d="M88.2,269.409h71.611a6.3,6.3,0,1,0,0-12.608H88.2a6.3,6.3,0,0,0,0,12.608Zm0,0" transform="translate(-81.898 -256.8)" fill="#af2727"/>
        <path id="Trazado_79" data-name="Trazado 79" d="M159.812,288.684H88.2a6.306,6.306,0,0,0,0,12.611h71.611a6.306,6.306,0,1,0,0-12.611Zm0,0" transform="translate(-81.898 -262.846)" fill="#af2727"/>
      </g>
    </g>
  </g>
</svg>
