<svg xmlns="http://www.w3.org/2000/svg" xmlns:xlink="http://www.w3.org/1999/xlink" width="432" height="433" viewBox="0 0 432 433">
  <defs>
    <clipPath id="clip-nequi">
      <rect width="432" height="433"/>
    </clipPath>
  </defs>
  <g id="nequi" clip-path="url(#clip-nequi)">
    <g id="Grupo_15912" data-name="Grupo 15912" transform="translate(8464 -4225)">
      <g id="Grupo_15910" data-name="Grupo 15910">
        <ellipse id="Elipse_428" data-name="Elipse 428" cx="211.5" cy="211" rx="211.5" ry="211" transform="translate(-8459 4231)" fill="#fff"/>
      </g>
    </g>
    <g id="Grupo_1" data-name="Grupo 1" transform="translate(-89 -303)">
      <path id="Trazado_1" data-name="Trazado 1" d="M224.1,514.592s26.049,45.9,62.022,6.822c1.99-2.161,4.1-4.463,6.294-6.855-15.369-7.941-64.466-33.38-108.938-57.189C205.723,488.9,224.1,514.592,224.1,514.592Z" transform="translate(53.088 142.927)" fill="#ff2879"/>
      <path id="Trazado_2" data-name="Trazado 2" d="M210.695,382.718,176.7,401.245s-39.26,23.109-19.15,60.4c1.094-1.345,1.784-2.1,1.784-2.1Z" transform="translate(6.21 32.375)" fill="#ff2879"/>
      <path id="Trazado_3" data-name="Trazado 3" d="M264.754,375.32s-11.586-24.96-40.314-9.3l-21.092,11.5c13.426,5.676,60.635,25.627,97.982,41.289C281.1,394.879,264.754,375.32,264.754,375.32Z" transform="translate(82.516)" fill="#ff2879"/>
      <path id="Trazado_4" data-name="Trazado 4" d="M289.971,421.015c-2.538-2.769-5.5-6.066-8.772-9.765-4.813,17.731-15.587,57.472-25.357,93.814,17.865-19.792,31.028-34.432,31.028-34.432S317.261,450.785,289.971,421.015Z" transform="translate(160.255 74.628)" fill="#ff2879"/>
      <path id="Trazado_5" data-name="Trazado 5" d="M163.762,414.533c-7.333,9.023-33.3,45.154,1.784,66.743,14.282,8.79,41.641,23.8,71.018,39.533-25.774-36.524-56.75-80.869-70.4-102.175C165.278,417.247,164.491,415.883,163.762,414.533Z" transform="translate(0 79.489)" fill="#00cbd2"/>
      <path id="Trazado_6" data-name="Trazado 6" d="M240.793,371.383s-26.352-19.018-41.555,3.721l-23.687,35.432,68.958-37.58Z" transform="translate(41.354 4.558)" fill="#00cbd2"/>
      <path id="Trazado_7" data-name="Trazado 7" d="M303.021,441.826s11.784-27.91-18.607-40.314c-8.663-3.535-24.03-9.946-41.572-17.3,19.257,22.769,42.033,49.486,57.608,67.075C302.073,445.317,303.021,441.826,303.021,441.826Z" transform="translate(141.003 34.589)" fill="#00cbd2"/>
      <path id="Trazado_8" data-name="Trazado 8" d="M232.256,529.373s39.074,21.087,49-17.366c3.431-13.3,9.827-37.268,16.729-62.942-21.613,23.95-50.1,55.435-70.6,77.8C230.524,528.483,232.256,529.373,232.256,529.373Z" transform="translate(118.115 130.627)" fill="#00cbd2"/>
      <path id="Trazado_9" data-name="Trazado 9" d="M374.213,408.859c-37.347-15.662-84.556-35.613-97.982-41.289l-68.958,37.58-51.359,76.828s-.69.757-1.784,2.1c.729,1.35,1.516,2.714,2.4,4.1,13.647,21.306,44.624,65.651,70.4,102.175C271.4,614.164,320.5,639.6,335.869,647.544c20.495-22.36,48.982-53.845,70.6-77.8,9.77-36.342,20.544-76.083,25.357-93.814C416.247,458.345,393.47,431.629,374.213,408.859Z" transform="translate(9.632 9.943)" fill="#210049"/>
    </g>
  </g>
</svg>
