<svg height="512" viewBox="0 0 512 512" width="512" xmlns="http://www.w3.org/2000/svg" xmlns:xlink="http://www.w3.org/1999/xlink"><linearGradient id="New_Gradient_Swatch_24" gradientUnits="userSpaceOnUse" x1="122.177" x2="325.823" y1="325.823" y2="122.177"><stop offset="0" stop-color="#95d1d6"/><stop offset="1" stop-color="#dcf0f1"/></linearGradient><linearGradient id="New_Gradient_Swatch_2" gradientUnits="userSpaceOnUse" x1="247.686" x2="478.314" y1="523.314" y2="292.686"><stop offset="0" stop-color="#e87676"/><stop offset="1" stop-color="#f2b3b3"/></linearGradient><linearGradient id="New_Gradient_Swatch_7" gradientUnits="userSpaceOnUse" x1="283.5" x2="442.5" y1="446.5" y2="287.5"><stop offset="0" stop-color="#816a6a"/><stop offset="1" stop-color="#9d8b8b"/></linearGradient><g id="_11-global" data-name="11-global"><g id="gradient-2" data-name="gradient"><path d="m224 442a216.718 216.718 0 0 1 -84-16.773 10 10 0 1 1 7.712-18.454 196.794 196.794 0 0 0 76.288 15.227c109.178 0 198-88.822 198-198a200.379 200.379 0 0 0 -2.329-30.474 10 10 0 1 1 19.766-3.052 220.379 220.379 0 0 1 2.563 33.526 218 218 0 0 1 -218 218z" fill="#d5cdcd"/><path d="m31.945 314a10 10 0 0 1 -9.233-6.153 218.061 218.061 0 0 1 317.529-268.3 10 10 0 0 1 -10.678 16.912 197.4 197.4 0 0 0 -105.563-30.459c-109.178 0-198 88.822-198 198a196.8 196.8 0 0 0 15.171 76.151 10 10 0 0 1 -9.226 13.849z" fill="#d5cdcd"/><circle cx="224" cy="224" fill="url(#New_Gradient_Swatch_24)" r="144"/><path d="m224 70c-.132 0-.265 0-.4.008-47.125 1.871-86.72 19.324-114.5 50.471-24.725 27.721-38.342 64.49-38.339 103.528s13.623 75.805 38.354 103.527c27.784 31.146 67.374 48.594 114.491 50.459.132 0 .264.007.4.007 84.916 0 154-69.084 154-154s-69.09-154-154.006-154zm.331 288c-19.366-1.568-31.663-22.717-38.58-40.244a199.86 199.86 0 0 1 -10.011-35.756h96.674c-9.483 46.349-29.514 75.656-48.083 76zm-51.625-96a338.842 338.842 0 0 1 0-76h102.99a306.363 306.363 0 0 1 2.304 38 306.363 306.363 0 0 1 -2.309 38zm-81.945-38a140.746 140.746 0 0 1 5.253-38h56.565a359.226 359.226 0 0 0 0 76h-56.564a140.788 140.788 0 0 1 -5.254-37.995zm133.572-134c18.567.346 38.6 29.652 48.081 76h-96.677a199.838 199.838 0 0 1 9.968-35.643c6.917-17.565 19.223-38.765 38.628-40.357zm71.478 96h56.689a134.1 134.1 0 0 1 0 76h-56.689a327.706 327.706 0 0 0 2.189-38 327.706 327.706 0 0 0 -2.189-38zm48.975-20h-52a218.177 218.177 0 0 0 -14.389-47.885 128.969 128.969 0 0 0 -11.697-21.136 134.728 134.728 0 0 1 78.086 69.021zm-164.546-68.354c-11.965 17.411-20.151 41.586-24.84 68.354h-52.051c13.762-30.041 39.036-55.95 76.891-68.354zm-76.891 184.354h52.056c4.7 26.768 12.883 50.949 24.847 68.362-37.861-12.4-63.139-38.314-76.903-68.362zm163.345 69.026a128.915 128.915 0 0 0 11.7-21.141 218.177 218.177 0 0 0 14.388-47.885h52.006a134.706 134.706 0 0 1 -78.094 69.026z" fill="#72c2c8"/><rect fill="url(#New_Gradient_Swatch_2)" height="196" rx="16" width="284" x="221" y="310"/><path d="m221 350h284v34h-284z" fill="url(#New_Gradient_Swatch_7)"/><path d="m345 441h-81a10 10 0 0 1 0-20h81a10 10 0 0 1 0 20z" fill="#f2b3b3"/><g fill="#f6d084"><path d="m424 70h-17a14 14 0 0 1 0-28h24.811a5.506 5.506 0 0 1 5.5 5.744 10 10 0 0 0 19.982.86 25.508 25.508 0 0 0 -25.482-26.604h-5.811v-6a10 10 0 0 0 -20 0v6.025a33.995 33.995 0 0 0 1 67.975h17a14.015 14.015 0 0 1 14 14v1a14.015 14.015 0 0 1 -14 14h-25.209a5.507 5.507 0 0 1 -5.507-5.609l.019-1.038a10 10 0 1 0 -20-.358l-.019 1.036a25.509 25.509 0 0 0 25.507 25.969h7.209v6a10 10 0 0 0 20 0v-6.064a34.039 34.039 0 0 0 32-33.936v-1a34.038 34.038 0 0 0 -34-34z"/><path d="m73 405h-17a14 14 0 0 1 0-28h24.811a5.506 5.506 0 0 1 5.5 5.744 10 10 0 0 0 19.982.86 25.508 25.508 0 0 0 -25.482-26.604h-5.811v-6a10 10 0 0 0 -20 0v6.025a33.995 33.995 0 0 0 1 67.975h17a14.015 14.015 0 0 1 14 14v1a14.015 14.015 0 0 1 -14 14h-25.209a5.507 5.507 0 0 1 -5.507-5.609l.019-1.038a10 10 0 1 0 -20-.358l-.019 1.036a25.509 25.509 0 0 0 25.507 25.969h7.209v6a10 10 0 0 0 20 0v-6.064a34.039 34.039 0 0 0 32-33.936v-1a34.038 34.038 0 0 0 -34-34z"/></g></g></g></svg>